<svg id="visual" viewBox="0 0 960 540" width="960" height="540" xmlns="http://www.w3.org/2000/svg" xmlns:xlink="http://www.w3.org/1999/xlink" version="1.1"><rect width="960" height="540" fill="#191919"></rect><g><g transform="translate(952 265)"><path d="M0 -36.6L31.7 -18.3L31.7 18.3L0 36.6L-31.7 18.3L-31.7 -18.3Z" stroke="#000000" fill="none" stroke-width="2"></path></g><g transform="translate(393 267)"><path d="M0 -23L19.9 -11.5L19.9 11.5L0 23L-19.9 11.5L-19.9 -11.5Z" stroke="#000000" fill="none" stroke-width="2"></path></g><g transform="translate(871 527)"><path d="M0 -35L30.3 -17.5L30.3 17.5L0 35L-30.3 17.5L-30.3 -17.5Z" stroke="#000000" fill="none" stroke-width="2"></path></g><g transform="translate(162 86)"><path d="M0 -22L19.1 -11L19.1 11L0 22L-19.1 11L-19.1 -11Z" stroke="#000000" fill="none" stroke-width="2"></path></g><g transform="translate(932 381)"><path d="M0 -28L24.2 -14L24.2 14L0 28L-24.2 14L-24.2 -14Z" stroke="#000000" fill="none" stroke-width="2"></path></g><g transform="translate(509 324)"><path d="M0 -19L16.5 -9.5L16.5 9.5L0 19L-16.5 9.5L-16.5 -9.5Z" stroke="#000000" fill="none" stroke-width="2"></path></g><g transform="translate(864 444)"><path d="M0 -24L20.8 -12L20.8 12L0 24L-20.8 12L-20.8 -12Z" stroke="#000000" fill="none" stroke-width="2"></path></g><g transform="translate(649 403)"><path d="M0 -31L26.8 -15.5L26.8 15.5L0 31L-26.8 15.5L-26.8 -15.5Z" stroke="#000000" fill="none" stroke-width="2"></path></g><g transform="translate(859 291)"><path d="M0 -19L16.5 -9.5L16.5 9.5L0 19L-16.5 9.5L-16.5 -9.5Z" stroke="#000000" fill="none" stroke-width="2"></path></g><g transform="translate(339 71)"><path d="M0 -29L25.1 -14.5L25.1 14.5L0 29L-25.1 14.5L-25.1 -14.5Z" stroke="#000000" fill="none" stroke-width="2"></path></g><g transform="translate(761 217)"><path d="M0 -25L21.7 -12.5L21.7 12.5L0 25L-21.7 12.5L-21.7 -12.5Z" stroke="#000000" fill="none" stroke-width="2"></path></g><g transform="translate(166 218)"><path d="M0 -25L21.7 -12.5L21.7 12.5L0 25L-21.7 12.5L-21.7 -12.5Z" stroke="#000000" fill="none" stroke-width="2"></path></g><g transform="translate(811 65)"><path d="M0 -32L27.7 -16L27.7 16L0 32L-27.7 16L-27.7 -16Z" stroke="#000000" fill="none" stroke-width="2"></path></g><g transform="translate(87 443)"><path d="M0 -35L30.3 -17.5L30.3 17.5L0 35L-30.3 17.5L-30.3 -17.5Z" stroke="#000000" fill="none" stroke-width="2"></path></g><g transform="translate(929 165)"><path d="M0 -19L16.5 -9.5L16.5 9.5L0 19L-16.5 9.5L-16.5 -9.5Z" stroke="#000000" fill="none" stroke-width="2"></path></g><g transform="translate(43 4)"><path d="M0 -31L26.8 -15.5L26.8 15.5L0 31L-26.8 15.5L-26.8 -15.5Z" stroke="#000000" fill="none" stroke-width="2"></path></g><g transform="translate(725 490)"><path d="M0 -30L26 -15L26 15L0 30L-26 15L-26 -15Z" stroke="#000000" fill="none" stroke-width="2"></path></g><g transform="translate(433 440)"><path d="M0 -18L15.6 -9L15.6 9L0 18L-15.6 9L-15.6 -9Z" stroke="#000000" fill="none" stroke-width="2"></path></g><g transform="translate(735 99)"><path d="M0 -24L20.8 -12L20.8 12L0 24L-20.8 12L-20.8 -12Z" stroke="#000000" fill="none" stroke-width="2"></path></g><g transform="translate(239 73)"><path d="M0 -20L17.3 -10L17.3 10L0 20L-17.3 10L-17.3 -10Z" stroke="#000000" fill="none" stroke-width="2"></path></g><g transform="translate(538 256)"><path d="M0 -25L21.7 -12.5L21.7 12.5L0 25L-21.7 12.5L-21.7 -12.5Z" stroke="#000000" fill="none" stroke-width="2"></path></g><g transform="translate(1 536)"><path d="M0 -20L17.3 -10L17.3 10L0 20L-17.3 10L-17.3 -10Z" stroke="#000000" fill="none" stroke-width="2"></path></g><g transform="translate(106 284)"><path d="M0 -26L22.5 -13L22.5 13L0 26L-22.5 13L-22.5 -13Z" stroke="#000000" fill="none" stroke-width="2"></path></g><g transform="translate(266 397)"><path d="M0 -27L23.4 -13.5L23.4 13.5L0 27L-23.4 13.5L-23.4 -13.5Z" stroke="#000000" fill="none" stroke-width="2"></path></g><g transform="translate(349 446)"><path d="M0 -29L25.1 -14.5L25.1 14.5L0 29L-25.1 14.5L-25.1 -14.5Z" stroke="#000000" fill="none" stroke-width="2"></path></g><g transform="translate(225 528)"><path d="M0 -33L28.6 -16.5L28.6 16.5L0 33L-28.6 16.5L-28.6 -16.5Z" stroke="#000000" fill="none" stroke-width="2"></path></g><g transform="translate(565 79)"><path d="M0 -35L30.3 -17.5L30.3 17.5L0 35L-30.3 17.5L-30.3 -17.5Z" stroke="#000000" fill="none" stroke-width="2"></path></g><g transform="translate(555 487)"><path d="M0 -34L29.4 -17L29.4 17L0 34L-29.4 17L-29.4 -17Z" stroke="#000000" fill="none" stroke-width="2"></path></g><g transform="translate(509 139)"><path d="M0 -24L20.8 -12L20.8 12L0 24L-20.8 12L-20.8 -12Z" stroke="#000000" fill="none" stroke-width="2"></path></g><g transform="translate(958 538)"><path d="M0 -32L27.7 -16L27.7 16L0 32L-27.7 16L-27.7 -16Z" stroke="#000000" fill="none" stroke-width="2"></path></g><g transform="translate(841 195)"><path d="M0 -23L19.9 -11.5L19.9 11.5L0 23L-19.9 11.5L-19.9 -11.5Z" stroke="#000000" fill="none" stroke-width="2"></path></g><g transform="translate(678 267)"><path d="M0 -25L21.7 -12.5L21.7 12.5L0 25L-21.7 12.5L-21.7 -12.5Z" stroke="#000000" fill="none" stroke-width="2"></path></g><g transform="translate(199 284)"><path d="M0 -30L26 -15L26 15L0 30L-26 15L-26 -15Z" stroke="#000000" fill="none" stroke-width="2"></path></g><g transform="translate(46 134)"><path d="M0 -23L19.9 -11.5L19.9 11.5L0 23L-19.9 11.5L-19.9 -11.5Z" stroke="#000000" fill="none" stroke-width="2"></path></g><g transform="translate(930 40)"><path d="M0 -32L27.7 -16L27.7 16L0 32L-27.7 16L-27.7 -16Z" stroke="#000000" fill="none" stroke-width="2"></path></g><g transform="translate(446 85)"><path d="M0 -27L23.4 -13.5L23.4 13.5L0 27L-23.4 13.5L-23.4 -13.5Z" stroke="#000000" fill="none" stroke-width="2"></path></g><g transform="translate(629 10)"><path d="M0 -27L23.4 -13.5L23.4 13.5L0 27L-23.4 13.5L-23.4 -13.5Z" stroke="#000000" fill="none" stroke-width="2"></path></g><g transform="translate(10 306)"><path d="M0 -31L26.8 -15.5L26.8 15.5L0 31L-26.8 15.5L-26.8 -15.5Z" stroke="#000000" fill="none" stroke-width="2"></path></g><g transform="translate(157 478)"><path d="M0 -27L23.4 -13.5L23.4 13.5L0 27L-23.4 13.5L-23.4 -13.5Z" stroke="#000000" fill="none" stroke-width="2"></path></g><g transform="translate(312 320)"><path d="M0 -31L26.8 -15.5L26.8 15.5L0 31L-26.8 15.5L-26.8 -15.5Z" stroke="#000000" fill="none" stroke-width="2"></path></g><g transform="translate(705 26)"><path d="M0 -23L19.9 -11.5L19.9 11.5L0 23L-19.9 11.5L-19.9 -11.5Z" stroke="#000000" fill="none" stroke-width="2"></path></g></g></svg>